Patient4_TMGait_0pt4_02_right_06_EMG.mot
version=1
nRows=26
nColumns=33
inDegrees=no
endheader
time	1LAddLong	2LGlutMax	3LGlutMed	4LIliopsoas	5LSemiMemb	6LBicFemLong	7LRecFem	8LVastMed	9LVastLat	10LGasMed	11LTibAnt	12lTibPost	13LPeroneusLong	14LSol	15LExtDigLong	16LFlexDigLong	17RAddLong	18RGlutMax	19RGlutMed	20RIliopsoas	21RSemiMemb	22RBicFemLong	23RRecFem	24RVastMed	25RVastLat	26RGasMed	27RTibAnt	28RTibPost	29RPeroneusLong	30RSol	31RExtDigLong	32RFlexDigLong
7.39	0.008392	-0.059204	-0.16327	-0.009766	-0.037537	-0.037384	-0.019073	-0.00885	0.018158	-0.015564	0.058746	-0.009613	-0.005493	0.10315	-0.001678	0.011292	0	-0.062408	-0.38284	-0.04425	0.011292	0.028839	0.003967	-0.084076	0.000305	-0.011902	0.2945	-0.005951	-0.14328	0.032501	-0.008545	0.001068
7.391	-0.001221	-0.054016	0.016174	-0.010681	0.050049	-0.045624	-0.019684	-0.004578	0.013123	-0.028229	0.024872	-0.00412	-0.015564	0.10498	-0.048218	0.006561	0.001678	-0.040588	-0.084534	-0.090485	0.007172	0.039825	0.024872	-0.040131	0.002136	-0.007629	0.31723	-0.007782	-0.10483	0.032196	-0.006561	-0.00061
7.392	0.004272	-0.056152	0.036469	-0.003357	0.066681	-0.020752	-0.007935	0.000305	0.002136	-0.033569	-0.032501	-0.003357	-0.023956	0.075836	-0.036316	-0.001068	0.002441	-0.045319	-0.004425	-0.14862	0.002289	0.049591	0.001831	-0.041046	0.007935	-0.007324	0.25681	-0.004272	-0.043793	-0.001526	-0.005493	0.000763
7.393	0.004883	-0.053406	0.080566	-0.00351	0.053253	0	-0.013885	0.018921	0.007172	-0.054932	-0.005035	-0.005798	-0.029907	0.046692	-0.004578	-0.006409	0.010834	-0.022736	0.045319	-0.15213	0.007324	0.041809	0.032196	-0.075989	0.007782	-0.001526	-0.054169	-0.004578	-0.027313	-0.027008	-0.002747	0.004578
7.394	0.001678	-0.063019	0.1239	0.015869	0.039978	0.015259	-0.015411	0.018616	-0.00061	-0.069733	0.002441	-0.002899	-0.014191	0.062408	0.007172	-0.00885	0.003204	-0.044098	0.11551	-0.051727	0.006104	0.060425	0.007935	-0.037842	0.003204	-0.00412	-0.10239	-0.006256	-0.098419	0.011444	-0.002441	0.003662
7.395	0.001221	-0.06958	0.075989	0.03952	0.025024	0.027618	0.028229	0.011902	0.003967	-0.1178	0.00946	-0.008698	-0.027924	0.068817	0.037537	-0.19226	-0.001221	-0.032654	0.14664	0.072327	0.006409	0.027466	0.001984	-0.063934	0.00885	-0.006561	-0.024872	-0.003967	0.009918	-0.000763	-0.003204	0.006866
7.396	0.011597	-0.097504	-0.015564	0.014038	0.006104	0.0177	0.023193	0.028381	0.020905	-0.11353	0.001984	-0.010986	-0.098572	0.05661	0.045471	-0.085144	0.002289	-0.007629	0.28549	0.15778	0.000305	0.041504	0.017853	-0.076599	-0.007782	-0.008392	0.029907	-0.001373	0.057983	-0.019531	-0.003052	0.000916
7.397	0.00946	-0.13138	-0.007324	0.001831	0.004272	0.007477	0.06485	0.021362	0.020294	-0.11902	0.005798	-0.007477	-0.11154	0.066528	0.034637	0.14999	-0.002747	0.042572	0.32272	0.18967	0.002899	0.038147	-0.021667	-0.079956	0.00351	-0.007782	0.10803	-0.010071	-0.13779	-0.050964	-0.006561	0.00061
7.398	0.009613	-0.1976	0.025787	0.01236	-0.005951	0.007782	0.072327	-0.000763	0.003662	-0.11261	-0.009918	0.008545	-0.10132	0.12756	0.02655	0.053406	-0.001526	-0.017242	-0.19333	0.052643	0.003357	0.023193	-0.028534	-0.096436	-0.006104	-0.007935	0.10712	-0.003204	-0.21591	-0.071869	-0.004272	-0.002899
7.399	0.007172	-0.23483	-0.20309	0.011902	0.009003	-0.022125	0.052795	-0.018005	-0.004425	-0.054626	-0.036316	0.008698	-0.022583	0.19577	0.00061	-0.029602	0.016632	-0.021515	-0.36804	0.059052	-0.002899	0.027161	-0.062103	-0.083923	-0.004272	-0.012665	0.12802	-0.00351	-0.17868	-0.07309	-0.002899	0.010529
7.4	0.00473	-0.23789	-0.13245	0.010223	0.012665	-0.031128	-0.005035	-0.014801	0.012817	0.006714	-0.032196	-0.003052	0.017395	0.26367	-0.013733	0.028381	0.009003	-0.00351	-0.46677	0.030975	-0.002747	0.022583	-0.071259	-0.039215	-0.003052	-0.00946	0.052185	-0.010071	-0.023346	-0.031891	-0.001373	-0.001678
7.401	0.005493	-0.21576	0.14938	0.014496	0.005035	0.027008	0.030975	-0.003967	-0.008392	0.094452	-0.014801	-0.079041	0.084076	0.33127	0.010376	-0.035553	0.009766	0.043335	-0.14053	0.024261	-0.008545	0.053406	-0.056458	-0.088959	0.014496	-0.011902	0.020447	-0.00061	0.064392	-0.05188	-0.001526	-0.002136
7.402	0.001373	-0.20004	0.24933	0.001678	0.019836	-0.012665	0.029144	-0.00412	0.005341	0.16449	-0.007172	0.17288	0.10422	0.099182	-0.005798	-0.38925	0.004425	0.021667	0.26382	0.001221	-0.005188	0.055237	-0.075531	-0.052948	0.010681	-0.006409	0.12817	-0.005798	0.012665	-0.06958	-0.001068	-0.002136
7.403	0.006866	-0.19653	0.17029	0.005951	0.010071	-0.035095	-0.033264	-0.007172	0.020752	0.095673	-0.007172	-0.02182	0.14755	0.085907	-0.011292	0.30304	0.001678	0.023499	0.43747	0.00885	0.007629	0.057373	-0.048981	-0.074921	0.003357	-0.002747	0.08255	-0.005798	-0.035248	-0.074615	-0.003204	-0.003357
7.404	0.004578	-0.25131	0.055542	0.009155	-0.011749	-0.034332	-0.008392	-0.007935	0.010681	0.14282	0.000916	-0.037079	0.094299	0.10864	-0.019379	0.14832	0.000305	0.009003	0.14923	0.02655	0.010376	0.06485	-0.04425	-0.077057	0.005798	-0.007019	0.012817	-0.001068	-0.06012	-0.090179	-0.001526	-0.002747
7.405	0.007477	-0.22308	-0.019989	0.014343	-0.014648	0.007172	-0.001984	0.003662	0.029602	0.17899	0.003204	-0.013275	0.042572	-0.21042	-0.017853	0.11444	0.006866	0.036316	-0.022736	0.025024	0.002289	0.083618	-0.029755	-0.029449	0.004272	-0.001831	-0.030823	-0.002289	-0.0737	-0.06546	-0.001068	-0.006409
7.406	0.00473	-0.17822	0.040283	0.022583	-0.032349	0.009766	-0.068207	-0.006714	0.049133	0.12299	0.00824	-0.003815	0.009918	-0.49194	-0.023651	0.097504	0.004425	0.07782	-0.025787	-0.006409	-0.005646	0.074768	-0.04776	-0.060272	0.005951	-0.003662	-0.058289	-0.001678	-0.008545	-0.037689	-0.006561	0.000305
7.407	0.009613	-0.1648	-0.001373	0.018921	0.015106	-0.001221	-0.085907	0.003204	0.032959	0.10162	0.01709	-0.09552	-0.002747	-0.57556	-0.017242	0.033264	0.00061	0.013428	-0.13886	-0.01297	-0.012665	0.080109	-0.038757	-0.045471	0.00824	-0.001678	-0.10132	-0.001373	0.19012	-0.028839	-0.009308	-0.007324
7.408	0.011139	-0.18951	0.06134	0.014801	0.029297	-0.038757	-0.044098	-0.009155	0.024414	0.074463	0.00351	0.083008	-0.039673	-0.51086	-0.008545	0.048218	0.001984	0.013733	-0.21835	0.010223	-0.020294	0.063782	-0.049438	-0.063019	0.00351	-0.014648	-0.074463	-0.002289	0.16342	-0.048523	-0.004272	-0.003662
7.409	0.00824	-0.16846	0.082397	0.003357	0.013733	-0.007477	-0.040588	0.000305	0.017548	0.007172	0.018616	0.16495	-0.004425	-0.028381	0.003204	0.029907	0.002441	-0.0177	0.02182	0.02121	-0.015106	0.052185	-0.054932	-0.04837	0.009308	-0.006561	0.042114	-0.005951	0.20569	-0.10315	-0.001831	-0.003052
7.41	-0.000153	-0.13229	0.12833	0.005035	0.007324	-0.003052	-0.080566	0.006561	0.005341	-0.017853	0.00885	-0.071106	0.018005	0.36057	0.015259	-0.001373	0.002441	0.019989	0.09491	0.030518	-0.012512	0.054932	-0.083923	-0.036469	0.005493	-0.002594	0.23926	-0.002441	0.15945	-0.11765	-0.005493	-0.002594
7.411	0.002747	-0.11505	0.097809	-0.010223	0.009613	-0.012512	-0.067596	0.007477	-0.016174	-0.03952	0.012817	0.000763	-0.012512	0.40863	0.020142	-0.006866	0.003815	0.032349	0.21957	0.036621	-0.008545	0.063019	-0.06424	-0.024719	0.004425	-0.007019	0.48447	-0.003357	-0.36438	-0.13153	-0.002289	-0.000916
7.412	0.00473	-0.12192	0.054932	-0.00885	0.000153	-0.032043	-0.00351	0.013428	0.079956	-0.022888	0.008545	-0.03006	-0.013275	0.16571	0.019836	-0.023346	0.009155	0.096741	0.037689	-0.050507	-0.011139	0.041046	-0.074615	0.018463	0.017242	-0.000153	0.32928	-0.006714	-0.34119	-0.092621	-0.003662	-0.002441
7.413	0.007019	-0.09552	0.023499	0.005798	0.001831	-0.010071	-0.001984	0.001221	0.12299	-0.11398	0.007172	-0.024109	-0.01358	-0.11932	0.022278	-0.055084	0.00412	0.007782	-0.04364	-0.11246	-0.002747	0.064697	-0.096741	-0.022888	0.007477	0	0.21423	-0.005341	-0.20233	-0.009003	-0.004272	-0.006561
7.414	0.010986	-0.13748	-0.002136	0.033264	0.00412	0.001373	0.021362	0.000763	0.056	-0.13763	0.00061	-0.031738	-0.0383	-0.010223	0.018005	-0.51453	0.002594	0.014954	-0.031891	-0.068207	-0.009766	0.052795	-0.10208	0.000916	0.002594	-0.001373	-0.095673	-0.005646	-0.10468	0.042877	-0.002136	-0.007477
7.415	0.002594	-0.1059	0.019073	-0.004883	-0.001831	-0.015717	0.024567	-0.000153	0.02533	-0.13001	0.010681	-0.036774	-0.082703	-0.097198	0.010834	-0.17456	0.000916	-0.005493	-0.027313	0.016327	-0.018921	0.07309	-0.065918	-0.022583	0.017548	0.000153	-0.26016	-0.009003	-0.021973	0.083771	-0.001678	-0.009766
